<mxfile host="app.diagrams.net" modified="2024-01-21T09:16:54.308Z" agent="Mozilla/5.0 (Windows NT 10.0; Win64; x64) AppleWebKit/537.36 (KHTML, like Gecko) Chrome/120.0.0.0 Whale/3.24.223.21 Safari/537.36" version="22.1.21" etag="nsXRQcewcp_-2QCNAK0O" type="github">
  <diagram name="페이지-1" id="rtASDWxXrjDzoC3NZpkU">
    <mxGraphModel>
      <root>
        <mxCell id="0" />
        <mxCell id="1" parent="0" />
      </root>
    </mxGraphModel>
  </diagram>
</mxfile>
